CTYPE svg PUBLIC "-//W3C//DTD SVG 1.1//EN" "http://www.w3.org/Graphics/SVG/1.1/DTD/svg11.dtd">
<svg t="1578316220973" class="icon" viewBox="0 0 1024 1024" version="1.1" xmlns="http://www.w3.org/2000/svg" p-id="8794" xmlns:xlink="http://www.w3.org/1999/xlink" width="200" height="200"><defs><style type="text/css"></style></defs><path d="M119.474005 477.866667V204.8c0-47.104 99.328-85.333333 221.866667-85.333333s221.866667 38.229333 221.866667 85.333333v221.866667z" fill="#FFDEDC" p-id="8795"></path><path d="M119.474005 580.266667V307.2c0-47.104 99.328-85.333333 221.866667-85.333333s221.866667 38.229333 221.866667 85.333333v221.866667z" fill="#F43151" p-id="8796"></path><path d="M119.474005 682.666667V409.6c0-47.104 99.328-85.333333 221.866667-85.333333s221.866667 38.229333 221.866667 85.333333v221.866667z" fill="#FFDEDC" p-id="8797"></path><path d="M170.674005 155.818667v332.8H132.274005V194.048A38.4 38.4 0 0 1 170.674005 155.818667z" fill="#FFFFFF" p-id="8798"></path><path d="M426.674005 403.285333l582.485334 110.933334v486.4H424.626005l2.048-597.333334z" fill="#266BD2" p-id="8799"></path><path d="M17.074005 512l409.6-108.714667v605.866667H19.292672L17.074005 512z" fill="#9DDAFE" p-id="8800"></path><path d="M430.940672 416.085333l567.466667 91.989334v76.8l-567.466667-87.722667v-81.066667z" fill="#0052CB" p-id="8801"></path><path d="M17.074005 512l409.6-108.714667v89.6L17.074005 583.68V512z" fill="#266BD2" p-id="8802"></path><path d="M580.274005 855.552l273.066667 17.066667v128H580.274005v-145.066667z" fill="#0052CB" p-id="8803"></path><path d="M68.274005 1009.152H27.143339V507.050667l41.130666-5.12v507.221333z" fill="#FFFFFF" p-id="8804"></path><path d="M1009.842005 489.984L580.274005 417.962667V204.8c0-66.56-123.050667-102.4-238.933333-102.4S102.407339 138.24 102.407339 204.8v268.288L12.978005 494.933333A17.066667 17.066667 0 0 0 0.007339 512v494.933333a17.066667 17.066667 0 0 0 17.066666 17.066667h989.866667a17.066667 17.066667 0 0 0 17.066667-17.066667V506.88a17.066667 17.066667 0 0 0-14.165334-16.896zM136.540672 204.8c0-28.501333 77.994667-68.266667 204.8-68.266667s204.8 39.765333 204.8 68.266667v58.88c-37.888-30.208-114.517333-50.346667-204.8-50.346667s-166.912 20.138667-204.8 50.346667z m0 81.92c24.576-29.866667 100.693333-56.32 204.8-56.32s180.224 25.6 204.8 56.32v79.36c-37.888-30.208-114.517333-50.346667-204.8-50.346667s-166.912 20.138667-204.8 50.346667zM409.607339 989.866667H34.140672V587.093333l375.466667-79.701333z m0-500.053334L34.140672 569.685333v-44.373333l375.466667-93.866667z m18.432-97.28h-5.461334L136.540672 464.554667V389.12c24.576-29.866667 100.693333-56.32 204.8-56.32s180.224 25.6 204.8 56.32v23.210667L429.575339 392.533333zM844.807339 989.866667h-256v-127.488l256 12.8z m145.066666 0h-128v-122.88a8.533333 8.533333 0 0 0-8.021333-8.533334l-273.066667-13.653333a7.850667 7.850667 0 0 0-6.314666 2.389333 8.533333 8.533333 0 0 0-2.730667 6.144v136.533334H443.740672V506.197333l546.133333 85.333334z m0-415.744l-546.133333-85.333334v-59.050666l546.133333 91.477333z" fill="#3D3D59" p-id="8805"></path></svg>

