<svg t="1589358296837" class="icon" viewBox="0 0 1024 1024" version="1.1" xmlns="http://www.w3.org/2000/svg" p-id="10443" width="200" height="200">
  <path d="M852.772571 73.142857H159.158857A85.686857 85.686857 0 0 0 73.142857 158.573714V877.714286a85.577143 85.577143 0 0 0 86.016 85.430857h391.204572a23.771429 23.771429 0 1 0 0-47.542857H159.158857A38.034286 38.034286 0 0 1 120.685714 877.714286V158.573714c0-20.918857 17.115429-37.888 38.473143-37.888h693.613714a38.034286 38.034286 0 0 1 38.473143 37.888v444.086857c0 31.670857 47.542857 31.670857 47.542857 0V158.573714A85.577143 85.577143 0 0 0 852.772571 73.142857" fill="#cccccc" p-id="10444"></path>
  <path d="M244.297143 270.153143h457.142857a23.771429 23.771429 0 1 0 0-47.542857H244.297143a23.771429 23.771429 0 1 0 0 47.542857M591.469714 429.238857a23.771429 23.771429 0 0 0-23.771428-23.771428H244.297143a23.771429 23.771429 0 1 0 0 47.542857h323.401143a23.771429 23.771429 0 0 0 23.771428-23.771429M244.297143 588.324571a23.771429 23.771429 0 1 0 0 47.542858h189.586286a23.771429 23.771429 0 1 0 0-47.542858H244.297143zM756.297143 930.962286a122.514286 122.514286 0 1 1 0-245.028572 122.514286 122.514286 0 0 1 0 245.028572m0-292.571429a170.057143 170.057143 0 1 0 0 340.114286 170.057143 170.057143 0 0 0 0-340.114286" fill="#cccccc" p-id="10445"></path>
</svg>
