<svg t="1590403114683" class="icon" viewBox="0 0 1024 1024" version="1.1" xmlns="http://www.w3.org/2000/svg" p-id="7755" width="200" height="200">
  <path d="M605.2 372.9v40.7c0 14.9-12.3 27-27.3 27s-27.3-12.1-27.3-27v-40.7c0-14.9 12.3-27.1 27.3-27.1s27.3 12.2 27.3 27.1zM480.7 64C282.3 64 121 224.5 121 421.7c0 117.4 58.5 227.5 156.4 294.7l17.6 12.1-18.4 10.9c-9.9 5.9-18.4 12.1-26.1 19.1-39.8 35.8-59.9 89.9-59.9 160.8 0 14.9 12.3 27.1 27.3 27.1s27.3-12.2 27.3-27.1c0-53.2 14.6-94.7 42.3-120 31-28 72.4-31 88.8-31l5.3 0.1 7.8-1.1 2.4 0.6c29.9 7.6 59.6 11.5 88.2 11.6l34.3-56.1c-11.2 1.3-22.4 1.9-33.4 1.9-168.3 0-305.2-136.2-305.2-303.6s136.9-303.6 305.2-303.6 305.2 136.2 305.2 303.6c0 44.2-9.9 87.1-29.4 127.9 14.3 2.1 32.6 7.6 51 20.4 21.9-47.1 32.9-96.9 32.9-148.4C840.5 224.5 679.1 64 480.7 64zM356.2 372.9v40.7c0 14.9 12.3 27 27.3 27s27.3-12.1 27.3-27v-40.7c0-14.9-12.3-27.1-27.3-27.1s-27.3 12.2-27.3 27.1z" fill="#333333" p-id="7756"></path>
  <path d="M683.7 733.1c0-8.1 4.7-15.5 12.4-19.6 7.7-4 17.2-4 24.9 0 7.7 4 12.5 11.5 12.5 19.6v75.8c0 12.5-11.1 22.6-24.9 22.6-13.8 0-24.9-10.1-24.9-22.6v-75.8z m24.9 157c-8.9 0-17.1-4.7-21.5-12.4-4.4-7.7-4.4-17.2 0-24.9 4.4-7.7 12.7-12.4 21.5-12.4 13.7 0 24.9 11.1 24.9 24.9-0.1 13.7-11.2 24.8-24.9 24.8zM895.2 862c11.6 21 10.3 45.9-3.3 65.9-13.6 20-37.6 32.1-63.5 32.1H588.9c-25.9 0-49.9-12.1-63.6-32.1-13.6-20-14.9-44.9-3.3-65.9l119.8-217.3c12.7-23 38.5-37.5 66.8-37.5 28.3 0 54.1 14.5 66.8 37.5L895.2 862zM719.7 654.7c-12.3-5.6-27.2-1.1-33.4 10.1L566.5 882.2c-3.9 7-3.5 15.3 1.1 22 4.5 6.7 12.6 10.7 21.2 10.7h239.5c8.6 0 16.7-4 21.2-10.7 4.5-6.7 5-15 1.1-22L730.9 664.8c-2.4-4.3-6.3-7.9-11.2-10.1z m0 0" fill="#333333" p-id="7757"></path>
</svg>
