<svg class="icon" viewBox="0 0 1024 1024" version="1.1" xmlns="http://www.w3.org/2000/svg" p-id="11905" width="200" height="200">
    <path d="M260.5 421c0-16.569 13.431-30 30-30 16.569 0 30 13.431 30 30v502.781c0 16.569-13.431 30-30 30-16.569 0-30-13.431-30-30V421z" fill="#85A5FF" p-id="11906"></path>
    <path d="M383.275 354.354C399.758 322.174 408 295.055 408 273V120.975C408 89.509 433.509 64 464.975 64c94.993 0 172 77.007 172 172v121c0 16.569 13.431 30 30 30h190.076c55.228 0 100 44.772 100 100a100 100 0 0 1-3.704 26.961l-103.873 371C837.384 928.146 798.022 958 753.177 958H97c-16.569 0-30-13.431-30-30V417c0-16.569 13.431-30 30-30h232.873a60 60 0 0 0 53.402-32.646zM468 137.267V273c0 57.39-20.994 111.68-58.289 153.784l-0.298 0.337A59 59 0 0 1 365.247 447H127v451h626.177c17.938 0 33.683-11.942 38.519-29.215l103.873-371A40 40 0 0 0 897.051 487c0-22.091-17.91-40-40-40H606.975c-16.569 0-30-13.431-30-30V236c-3.039-75.818-34.748-113.396-95.129-112.733-7.671 0.085-13.846 6.328-13.846 14z" fill="#2F54EB" p-id="11907"></path>
</svg>
