<svg class="icon" viewBox="0 0 1024 1024" version="1.1" xmlns="http://www.w3.org/2000/svg" p-id="10500" width="200" height="200">
  <path d="M601.26 635.437c-9.502-27.175-14.745-53.672-14.948-77.051-0.122-13.774 1.474-26.724 5.23-38.753 5.203-16.666 14.442-31.375 28.789-42.223 44.23-33.445 70.673-85.418 70.673-141.889 0-98.166-79.579-177.745-177.745-177.745-98.161 0-177.739 79.579-177.739 177.745 0 56.498 26.466 108.495 70.732 141.935 14.329 10.827 23.604 25.512 28.844 42.156 3.797 12.065 5.414 25.055 5.307 38.86-0.191 23.414-5.451 49.93-14.995 77.128-6.567 18.714-14.957 37.328-25.015 55.404h225.876c-10.056-18.121-18.446-36.789-25.009-55.567z m148.991 114.814H276.275c94.264-78.995 122.922-203.867 94.264-225.522-57.262-43.259-94.264-111.912-94.264-189.208 0-130.888 106.103-236.991 236.985-236.991 130.888 0 236.991 106.103 236.991 236.991 0 77.259-36.971 145.885-94.183 189.149-28.4 21.475 0 146.586 94.183 225.581z m0 0" fill="#333333" p-id="10501"></path>
  <path d="M868.749 868.749v-59.252c0-32.717-26.529-59.246-59.252-59.246h-592.47c-32.726 0-59.251 26.525-59.251 59.246v59.252h710.973zM98.53 809.497c0-65.438 53.05-118.493 118.497-118.493h592.47c65.444 0 118.498 53.054 118.498 118.493v118.498H98.53V809.497z m0 0" fill="#333333" p-id="10502"></path>
</svg>
