<svg t="1590402170302" class="icon" viewBox="0 0 1024 1024" version="1.1" xmlns="http://www.w3.org/2000/svg" p-id="5799" width="200" height="200">
  <path d="M655.36 517.12m-104.96 0a104.96 104.96 0 1 0 209.92 0 104.96 104.96 0 1 0-209.92 0Z" fill="#333333" p-id="5800"></path>
  <path d="M885.76 140.8c0-23.04-12.8-46.08-33.28-46.08H143.36c-23.04 0-46.08 23.04-46.08 46.08v739.84c0 23.04 23.04 46.08 46.08 46.08h230.4V972.8h-230.4C102.4 975.36 51.2 936.96 51.2 896V128c0-40.96 35.84-79.36 79.36-79.36H870.4c40.96 0 61.44 51.2 61.44 92.16v509.44h-46.08V140.8z" fill="#333333" p-id="5801"></path>
  <path d="M212.48 604.16h138.24c12.8 0 23.04 10.24 23.04 23.04s-10.24 23.04-23.04 23.04H212.48c-12.8 0-23.04-10.24-23.04-23.04s10.24-23.04 23.04-23.04z" fill="#333333" p-id="5802"></path>
  <path d="M189.44 442.88c0-12.8 10.24-23.04 23.04-23.04h184.32c12.8 0 23.04 10.24 23.04 23.04s-10.24 23.04-23.04 23.04H212.48c-12.8 0-23.04-10.24-23.04-23.04z" fill="#333333" p-id="5803"></path>
  <path d="M675.84 281.6H212.48c-12.8 0-23.04-10.24-23.04-23.04s10.24-23.04 23.04-23.04h463.36c12.8 0 23.04 10.24 23.04 23.04s-7.68 23.04-23.04 23.04zM839.68 645.12c12.8-28.16 23.04-56.32 23.04-87.04 0-92.16-74.24-171.52-171.52-171.52-92.16 0-171.52 74.24-171.52 171.52 0 28.16 10.24 56.32 17.92 84.48l-125.44 250.88 115.2-12.8 61.44 97.28 107.52-204.8 115.2 204.8 46.08-102.4 115.2 5.12-133.12-235.52zM588.8 890.88l-35.84-61.44-69.12 10.24 87.04-166.4c28.16 28.16 61.44 51.2 102.4 56.32L588.8 890.88z m12.8-235.52c-23.04-23.04-35.84-56.32-35.84-92.16 0-33.28 12.8-69.12 35.84-92.16s56.32-35.84 92.16-35.84c33.28 0 69.12 12.8 92.16 35.84s35.84 56.32 35.84 92.16c0 33.28-12.8 69.12-35.84 92.16S729.6 691.2 693.76 691.2c-35.84 2.56-69.12-12.8-92.16-35.84z m238.08 176.64l-33.28 61.44-92.16-161.28c40.96-5.12 79.36-23.04 107.52-51.2l87.04 158.72-69.12-7.68z" fill="#333333" p-id="5804"></path>
</svg>
