<svg t="1579412436878" class="icon" viewBox="0 0 1024 1024" version="1.1" xmlns="http://www.w3.org/2000/svg" p-id="3841" width="200" height="200"><path d="M512 1024C229.23 1024 0 794.77 0 512S229.23 0 512 0s512 229.23 512 512-229.23 512-512 512z m0-960C264.576 64 64 264.576 64 512s200.576 448 448 448 448-200.577 448-448S759.423 64 512 64z" fill="#404040" p-id="3842"></path><path d="M476 141l72 0 0 405-72 0 0-405Z" fill="#404040" p-id="3843"></path><path d="M691.65 692.647a36 36 0 0 1-50.912 0L486.589 538.5a36 36 0 1 1 50.911-50.914l154.15 154.15a36 36 0 0 1 0 50.911z" fill="#404040" p-id="3844"></path></svg>
