<svg class="icon" viewBox="0 0 1024 1024" version="1.1" xmlns="http://www.w3.org/2000/svg" p-id="15511" width="200" height="200">
    <path d="M979.2 761.6l-134.4-77.44v45.44h-93.44A217.6 217.6 0 0 1 533.76 512a282.24 282.24 0 0 0-281.6-281.6H178.56v-45.44L44.8 262.4l134.4 77.44V294.4h72.96A217.6 217.6 0 0 1 469.76 512a282.24 282.24 0 0 0 281.6 281.6h94.08v45.44z" fill="#DDCC3A" p-id="15512"></path>
    <path d="M461.44 698.88a343.68 343.68 0 0 1-31.36-64 216.96 216.96 0 0 1-177.92 94.72H178.56v-45.44L44.8 761.6l134.4 77.44v-45.44h72.96a279.68 279.68 0 0 0 209.28-94.72zM972.8 262.4l-134.4-77.44v45.44h-87.04a279.68 279.68 0 0 0-209.92 95.36 342.4 342.4 0 0 1 31.36 64 216.96 216.96 0 0 1 178.56-95.36h87.04v45.44z" fill="#6A81AE" p-id="15513"></path>
</svg>
