<svg class="icon" viewBox="0 0 1024 1024" version="1.1" xmlns="http://www.w3.org/2000/svg" p-id="10936" width="200" height="200">
    <path d="M925.84448 421.74976A46.47424 46.47424 0 0 0 957.44 376.86272V267.3408C957.44 218.73152 920.10496 179.2 874.21952 179.2H154.90048C109.01504 179.2 71.68 218.73152 71.68 267.3408v108.83072a46.87872 46.87872 0 0 0 32.43008 45.15328c35.66592 10.68544 60.53888 46.9248 60.53888 88.1152s-24.89344 77.42976-60.53888 88.1152A46.8736 46.8736 0 0 0 71.68 642.7136v108.83072C71.68 800.1536 109.01504 839.68 154.90048 839.68h719.31904c45.88544 0 83.22048-39.5264 83.22048-88.13568V642.048a46.45888 46.45888 0 0 0-31.60064-44.88704c-34.816-11.19232-59.14624-47.24736-59.14624-87.69024s24.32-76.53376 59.15136-87.72096z m-21.90848 224.29184v105.50272c0 19.17952-13.312 34.78016-29.696 34.78016H311.70048a26.42944 26.42944 0 0 0 1.62304-8.85248v-35.584a26.752 26.752 0 0 0-53.504 0v35.584a26.4192 26.4192 0 0 0 1.62304 8.85248H154.90048c-16.384 0-29.696-15.60064-29.696-34.78016v-104.71424C180.224 627.49184 218.14784 571.904 218.14784 509.44S180.224 391.39328 125.184 372.04992V267.3408c0-19.1744 13.312-34.77504 29.696-34.77504h107.84256a26.35776 26.35776 0 0 0-2.90304 11.85792v35.58912a26.752 26.752 0 0 0 53.504 0v-35.58912a26.36288 26.36288 0 0 0-2.90304-11.85792h563.79904c16.384 0 29.696 15.60064 29.696 34.77504v105.50272c-54.50752 20.18816-90.7264 74.32192-90.7264 136.59648s36.21888 116.40832 90.74688 136.6016zM286.57152 533.248a26.71616 26.71616 0 0 0-26.752 26.69056v83.968a26.752 26.752 0 0 0 53.504 0v-83.968a26.71616 26.71616 0 0 0-26.752-26.69056z m0-181.95456a26.72128 26.72128 0 0 0-26.752 26.69056v83.968a26.752 26.752 0 0 0 53.504 0v-83.968a26.72128 26.72128 0 0 0-26.752-26.69056z" fill="#2966C1" p-id="10937"></path>
    <path d="M669.30688 544.768h-77.312v-35.14368h77.312a26.96192 26.96192 0 0 0 0-53.91872h-46.51008l60.35456-61.21984a27.2384 27.2384 0 0 0 0-38.12864 26.3168 26.3168 0 0 0-37.58592 0l-81.67936 82.85184L482.20672 356.352a26.31168 26.31168 0 0 0-37.5808 0 27.23328 27.23328 0 0 0 0 38.12864L504.97536 455.68h-43.4176a26.96192 26.96192 0 0 0 0 53.91872h77.312v35.16928h-77.312a26.96192 26.96192 0 0 0 0 53.91872h77.312v53.31456a26.58304 26.58304 0 1 0 53.15584 0v-53.31456h77.312a26.96192 26.96192 0 0 0-0.03072-53.91872z" fill="#FD9A16" p-id="10938"></path>
</svg>
