<svg t="1590399489230" class="icon" viewBox="0 0 1024 1024" version="1.1" xmlns="http://www.w3.org/2000/svg" p-id="4596" width="200" height="200">
  <path d="M816.3 169.5c78.7 0 142.6 63.8 142.6 142.6V712c0 78.7-63.8 142.6-142.6 142.6H207.7C129 854.6 65.1 790.8 65.1 712V312.1c0-78.7 63.8-142.6 142.6-142.6h608.6z m10.9 60.4h-629c-39.3 0-71.2 31.8-71.3 71.1l-1.3 419.2c0 39.6 31.9 71.5 71.3 71.5h629c39.3 0 71.2-31.8 71.3-71.1l1.3-419.2c0-39.6-31.9-71.5-71.3-71.5z" fill="#333333" p-id="4597"></path>
  <path d="M221.4 325l291.5 175.1L804 325.3c12.3-7.4 27.9-4.8 37.3 5.4l3.6 4.8c8.5 14.1 3.9 32.4-10.2 40.9l-306.4 184c-7.8 4.7-16.9 5.4-25 2.7-0.5-0.2-0.9-0.4-1.4-0.6-1.2-0.4-2.4-1-3.6-1.7-0.4-0.2-0.8-0.4-1.2-0.7l-306.4-184c-14.1-8.5-18.7-26.8-10.2-40.9 8.5-14.1 26.8-18.7 40.9-10.2z" fill="#333333" p-id="4598"></path>
</svg>
