<svg t="1579611564136" class="icon" viewBox="0 0 1024 1024" version="1.1" xmlns="http://www.w3.org/2000/svg" p-id="4122" width="200" height="200"><path d="M512 0C229.218462 0 0 229.218462 0 512s229.218462 512 512 512 512-229.218462 512-512S794.781538 0 512 0z" fill="#FD6B6D" p-id="4123"></path><path d="M513.772308 565.563077l-154.505846 154.466461a39.069538 39.069538 0 0 1-55.296-0.078769 39.266462 39.266462 0 0 1 0.078769-55.453538l154.348307-154.308923-155.05723-155.175385A36.627692 36.627692 0 0 1 355.052308 303.261538l365.686154 365.686154a36.627692 36.627692 0 1 1-51.79077 51.79077l-155.175384-155.175385z m157.538461-262.616615a35.249231 35.249231 0 1 1 49.742769 49.742769l-106.062769 108.977231a35.249231 35.249231 0 1 1-49.900307-49.782154l106.220307-109.016616v0.07877z" fill="#FFFFFF" p-id="4124"></path></svg>
