<svg t="1578566678228" class="icon" viewBox="0 0 1024 1024" version="1.1" xmlns="http://www.w3.org/2000/svg" p-id="2756" width="200" height="200"><path d="M368.585727 785.134482s-62.352408 212.637698-102.3219 209.440138S31.243214 844.28933 2.46518 345.470069C2.46518 345.470069-40.701872-7.86024 234.288233 0.133658S568.433187 177.598203 512.475898 374.248103s-143.890171 410.886378-143.890171 410.886379z" fill="#15162B" p-id="2757"></path><path d="M462.913728 364.655425s15.987797-139.093832-39.969492-193.452341c0-1.59878 105.519459 9.592678 39.969492 193.452341z" fill="#4B5161" p-id="2758"></path><path d="M261.467488 957.802687S45.632231 761.152786 68.015147 353.463968s425.275395-327.749835 377.312004 4.796339-183.859663 599.542381-183.859663 599.54238z" fill="#4B5161" p-id="2759"></path><path d="M390.968642 500.551698s-19.185356-287.780343-119.908476-268.594986-175.865765 132.698714-175.865765 209.440138C96.793181 518.138275 32.841994 52.893387 245.479691 91.2641s188.656002 306.965699 145.488951 409.287598z" fill="#15162B" p-id="2760"></path><path d="M271.060166 909.839297s-22.382916 9.592678-52.759729-39.969492C189.522402 820.307635 32.841994 463.779766 213.504098 428.606613s137.495053 335.743733 57.556068 481.232684z" fill="#71788A" p-id="2761"></path><path d="M366.986947 789.930821s-65.549967 212.637698-28.778034 230.224274c36.771933 17.586576 282.984004-9.592678 583.554584-420.479056 0 0 231.823054-278.187665-4.79634-409.287599S534.858814 172.801864 474.105186 367.852985s-107.118239 422.077836-107.118239 422.077836z" fill="#15162B" p-id="2762"></path><path d="M522.068576 385.439561s63.951187-126.303595 140.692612-145.488951c0 0-95.926781-43.167051-140.692612 145.488951z" fill="#4B5161" p-id="2763"></path><path d="M362.190608 989.778281s292.576682-59.154848 498.819261-415.682717S683.545324 81.671422 539.655153 388.637121 362.190608 989.778281 362.190608 989.778281z" fill="#4B5161" p-id="2764"></path><path d="M506.080779 537.323631s175.865765-235.020613 251.00841-167.871867 75.142645 201.44624 31.975594 265.397428c-43.167051 63.951187 270.193766-298.9718 67.148747-374.114446S526.864915 427.007833 506.080779 537.323631z" fill="#15162B" p-id="2765"></path><path d="M379.777185 945.01245s14.389017 20.784136 67.148746-7.993899c52.759729-27.179255 383.707124-252.60719 249.40963-372.515665S394.166202 781.936922 379.777185 945.01245z" fill="#71788A" p-id="2766"></path><path d="M816.244038 559.706546s-4.796339 127.902375-81.537764 161.476748-99.12434 75.142645-123.106036 89.531662c-25.580475 15.987797-103.920679 81.537764-140.692612 60.753628-36.771933-22.382916-43.167051-187.057223-9.592678-247.81085s92.729222-175.865765 166.273087-183.859664S816.244038 450.989528 816.244038 559.706546z" fill="#F0BC67" p-id="2767"></path><path d="M709.125799 730.775972s105.519459-68.747526 70.346306-135.896273c-35.173153-67.148747-73.543865-107.118239-137.495053-75.142645s-84.735323 73.543865-87.932882 111.914578c-1.59878 38.370712-67.148747 110.315798-71.945086 123.106036s-22.382916 97.525561 25.580475 99.12434c47.96339 3.197559 161.476748-124.704815 201.44624-123.106036z" fill="#FDCA7B" p-id="2768"></path><path d="M750.694071 516.539495s-30.376814-35.173153-63.951188-31.975594c0 0 51.16095-12.790237 63.951188 31.975594zM633.983154 490.95902s-52.759729 12.790237-62.352408 44.765831-17.586576 135.896273-49.56217 145.488951c0 0 15.987797-33.574373 19.185356-65.549967 1.59878-31.975594 11.191458-129.501154 92.729222-124.704815zM485.296643 717.985735s4.796339 38.370712-6.395118 63.951187-14.389017 52.759729 6.395118 57.556069c0 0-25.580475 9.592678-20.784135-55.957289 1.59878 0 22.382916-59.154848 20.784135-65.549967zM705.92824 700.399158s-1.59878 38.370712-27.179255 47.963391-59.154848 12.790237-54.358509 0c4.796339-14.389017 51.16095-76.741425 81.537764-47.963391z" fill="#AE6C16" p-id="2769"></path></svg>
