<svg t="1578566709114" class="icon" viewBox="0 0 1024 1024" version="1.1" xmlns="http://www.w3.org/2000/svg" p-id="3338" width="200" height="200"><path d="M745.4 680.1c0 31.3-63 54.9-146.6 54.9-69.1 0-124-16.1-141-39.3-0.2-0.5-0.6-1-0.9-1.4-3-4.5-4.7-9.2-4.7-14.2 0-80.8 65.8-146.6 146.6-146.6s146.6 65.8 146.6 146.6z" fill="#CCFFCC" p-id="3339"></path><path d="M350.9 576.7c-68.6-13.6-108.9-39.6-108.2-70.3 2.4-107.6 91.8-193.4 199.5-190.8 79.4 1.8 149.2 51.4 177.6 124.8-37.8 4.1-72.3 17.5-88.1 24.4l-8.7-17.5c-2.3-4.4-7.4-6.6-12.2-5-33.4 11.2-73.6 63.2-89.5 85.3L403.6 510c-2.2-2.2-5.3-3.3-8.4-2.8-3.1 0.4-5.8 2.2-7.4 4.9l-36.9 64.6z" fill="#FFFDC0" p-id="3340"></path><path d="M275.7 369.7c41-75.3 120.2-125 209-123.1 123.9 2.8 223 98.9 230.5 221.1-14.2-1.6-26.3-1.4-34.7-0.9v-15c0-4.8-3.3-8.9-8-9.8-10.5-2.1-21.3-3-32-2.9-29.6-84-108.2-141.3-197.9-143.4h-4.9c-64.4 0-122.3 28.6-162 74z" fill="#FFFAA4" p-id="3341"></path><path d="M456.9 694.3c0.3 0.4 0.7 0.9 0.9 1.4 17.1 23.3 72 39.3 141 39.3 83.6 0 146.6-23.6 146.6-54.9 0-80.8-65.8-146.6-146.6-146.6s-146.6 65.8-146.6 146.6c0 5 1.7 9.7 4.7 14.2z m-58.2-161L364.6 593v0.1l-7.6 13.2 75.7 66.1c4.1-88.2 76.9-158.8 166.2-158.8 91.8 0 166.6 74.8 166.6 166.6 0 22.8-16.2 39.9-41.3 52.1 39-1.7 90.1-9.5 118.9-14.7-3.6-40.4-33-60.9-34.3-61.8-2.5-1.6-4.1-4.3-4.4-7.3-0.2-3 0.8-5.9 2.9-8 0.6-0.6 11.6-11.4 32.7-14.9-17.6-42.1-69.4-73.7-70-74-2.6-1.6-4.4-4.3-4.8-7.4-0.4-3 0.7-6.1 2.9-8.3l18.8-18.7c-47.8-40.1-113.8-29.7-114.5-29.6-2.9 0.5-5.9-0.3-8.1-2.2-2.3-1.9-3.6-4.7-3.6-7.7v-17.6c-59.5-7.8-128.3 26.1-129 26.5-5 2.4-11 0.4-13.5-4.5l-8.8-17.6c-28.7 15.8-65.6 64.7-78.3 83.9-1.7 2.5-4.4 4.1-7.3 4.4-3.1 0.3-6-0.8-8.1-2.9l-17-16.6z m86-286.7c-88.8-1.9-168 47.8-209 123.1 39.6-45.3 97.6-74 162-74h4.9c89.7 2.1 168.3 59.4 197.9 143.4 10.8-0.1 21.6 0.8 32 2.9 4.7 0.9 8 5 8 9.8v15c8.4-0.5 20.6-0.7 34.7 0.9-7.5-122.2-106.6-218.3-230.5-221.1z m-42.5 69.1c-107.7-2.6-197.1 83.2-199.5 190.8-0.7 30.6 39.6 56.7 108.2 70.3l36.9-64.7c1.6-2.7 4.3-4.5 7.4-4.9 3.1-0.5 6.2 0.6 8.4 2.8l17.7 17.7c16-22.2 56.1-74.2 89.5-85.3 4.8-1.6 9.9 0.6 12.2 5l8.7 17.5c15.9-6.9 50.3-20.3 88.1-24.4-28.4-73.4-98.1-123-177.6-124.8z m-194.8 66.8c39.2-92.4 129.1-156 232.2-156 1.8 0 3.7 0.1 5.6 0.1 135.8 3 244.1 109.7 250.1 244.4 24 5.4 50.4 16.6 72.9 38.9 1.8 1.9 2.9 4.4 2.9 7.1 0 2.6-1.1 5.2-2.9 7l-17.5 17.5c19.9 14.1 61.6 47.7 72.3 90.5 0.2 0.8 0.3 1.7 0.3 2.5 0 2.2-0.7 4.4-2.1 6.1-1.9 2.4-4.8 3.9-7.9 3.9-9.7 0-17.1 2-22.4 4.2 13 12.8 32.3 38.4 32.3 77.1 0 4.8-3.4 8.9-8.1 9.8-11.2 2.2-90.7 16.9-144.4 16.9-15.2 0-28.3-1.2-37.2-4.1l-0.2-0.2c-23.3 4.6-48.9 6.8-74.6 6.8-42.2 0-81.6-6-111.1-16.8-25.9-9.6-40.3-21.4-47.9-32.9l-102.1-89.4c-3.6-3.1-4.4-8.3-2.1-12.5l4.8-8.4c-75.9-16.4-118.6-48.4-117.7-89 0.3-13.2 1.9-25.9 4.5-38.4-0.1-0.5-0.2-1-0.2-1.4 2.4-29.7 9.4-57.8 20.5-83.7z" fill="#4F5953" p-id="3342"></path><path d="M910.2 631.7c7.9 146.6 0 271.2-0.1 273.5 0 16.6-13.4 29.9-29.9 29.9H171.5c-16.5 0-29.9-13.4-29.9-29.9 0-0.6 0-1.3-0.2-1.9-0.5-2.5-48.2-249.6 49.5-504.5 2-5.2 3.7-10.5 5.1-15.9l51.4-0.4c-11.1 25.8-18.1 54-20.4 83.6 0 0.4 0.1 0.9 0.2 1.4-2.6 12.5-4.2 25.3-4.5 38.4-0.9 40.6 41.8 72.7 117.7 89l-4.8 8.4c-2.3 4.2-1.5 9.4 2.1 12.5l102.1 89.4c7.6 11.6 22 23.4 47.9 32.9C517.2 749 556.6 755 598.8 755c25.6 0 51.3-2.2 74.6-6.8l0.2 0.2c8.9 2.9 22.1 4.1 37.2 4.1 53.7 0 133.2-14.7 144.4-16.9 4.7-0.9 8.1-5 8.1-9.8 0-38.7-19.4-64.4-32.3-77.1 5.3-2.2 12.7-4.2 22.4-4.2 3.1 0 6-1.5 7.9-3.9 1.4-1.7 2.1-3.9 2.1-6.1l46.8-2.8zM892.2 89.3c-0.2 0.7-0.4 1.3-0.5 2-0.4 3 0.2 5.4 1.4 7.3-1.6 1.5-2.9 3.7-3.3 6.6-0.4 2.9 0.2 5.3 1.4 7.2-1.7 1.6-2.9 3.7-3.3 6.6-0.4 3 0.2 5.4 1.4 7.3-1.7 1.5-2.9 3.7-3.3 6.6-0.2 1.5-0.1 2.7 0.2 3.9H171.8c-0.3-0.5-0.6-1.1-1.1-1.6 1.4-1.9 2.1-4.2 1.9-7.2-0.3-3-1.4-5.2-3-6.9 1.3-1.9 2.1-4.3 1.8-7.3-0.2-3-1.4-5.2-3-6.9 0.9-1.3 1.6-2.9 1.8-4.7 10.5-1.9 17.8-4.2 24.5-6.4 10.8-3.5 20.1-6.6 41.2-6.6 19.3 0 28.7 3.5 38.7 7 11.2 4.1 22.7 8.2 45.5 8.2s34.3-4.1 45.5-8.2c10-3.5 19.4-7 38.7-7 19.3 0 28.7 3.5 38.7 7 11.2 4.1 22.7 8.2 45.5 8.2s34.3-4.1 45.5-8.2c10-3.5 19.5-7 38.7-7 19.4 0 28.8 3.5 38.8 7.1 11.2 4 22.7 8.1 45.5 8.1s34.3-4.1 45.5-8.1c10-3.6 19.5-7.1 38.7-7.1 19.4 0 28.8 3.5 38.8 7.1 11.2 4 22.8 8.1 45.5 8.1 22.1 0 34.1-4.7 44.7-9 7.1-2.7 13.2-5.1 22-6.1z" fill="#99E7FF" p-id="3343"></path><path d="M863.2 76.8c11.8-4.7 24.1-9.5 48.4-7.5 3.8 0.3 7.7 3.1 9.1 6.7 2.1 5.4-0.6 9.7-4 13.7 4.8 2.3 9.9 6.2 9 13.4-0.4 2.9-1.7 5-3.3 6.6 1.1 1.9 1.7 4.3 1.3 7.2-0.4 3-1.6 5.1-3.3 6.6 1.2 2 1.8 4.3 1.4 7.3-0.4 2.9-1.6 5.1-3.3 6.6 1.2 2 1.8 4.4 1.4 7.3-0.4 2.7-1.4 4.6-2.8 6.1 4.9 7.6 6.2 16.7 3.4 25.4-2.8 8.3-6.2 16.3-9.8 24.7-15.5 36.1-34.6 81.1-10.8 188.4 48.9 220 30.3 513.8 30.1 516.8 0 26.8-22.4 49.2-49.9 49.2H171.5c-27.1 0-49.3-21.9-49.9-48.9-3.2-17.4-46-262.5 50.6-514.5C200.1 319 163.4 228 139 180.3c-4.5-8.9-4.2-19.2 0.5-27.8 0-0.2-0.1-0.3-0.1-0.5-0.3-3 0.5-5.4 1.8-7.3-1.6-1.6-2.8-3.9-3-6.9-0.3-3 0.5-5.3 1.8-7.2-1.6-1.7-2.7-3.9-3-6.9-0.2-3 0.5-5.4 1.9-7.3-1.7-1.6-2.8-3.9-3-6.9-0.3-3 0.5-5.4 1.8-7.3-1.6-1.6-2.8-3.8-3-6.9-0.4-4 1.1-7.7 4.1-10 4.8-3.8 10.1-2.1 12.3-1.3 0.4 0.1 0.8 0.3 1.3 0.4 17.3-1.6 26.8-4.7 36.1-7.7 11.9-3.9 23.1-7.6 47.4-7.6 22.8 0 34.3 4.2 45.4 8.2 10.1 3.6 19.5 7 38.8 7 19.3 0 28.7-3.4 38.7-7 11.2-4 22.7-8.2 45.5-8.2s34.3 4.2 45.5 8.2c10 3.6 19.4 7 38.7 7 19.4 0 28.7-3.4 38.7-7 11.2-4 22.8-8.2 45.5-8.2 22.9 0 34.4 4.2 45.5 8.2 10.1 3.6 19.5 7 38.8 7 19.4 0 28.7-3.4 38.7-7 11.2-4 22.8-8.2 45.5-8.2 22.9 0 34.4 4.2 45.6 8.2 10 3.6 19.5 7 38.7 7 18.5 0.1 27.8-3.6 37.7-7.5z m28.5 14.5c0.1-0.7 0.3-1.3 0.5-2-8.8 1-15 3.4-21.8 6.1-10.6 4.3-22.7 9-44.7 9-22.8 0-34.3-4.1-45.5-8.1-10-3.6-19.5-7.1-38.8-7.1-19.3 0-28.7 3.5-38.7 7.1-11.2 4-22.8 8.1-45.5 8.1-22.9 0-34.3-4.1-45.5-8.1-10-3.6-19.5-7.1-38.8-7.1-19.3 0-28.7 3.5-38.7 7-11.2 4.1-22.8 8.2-45.5 8.2-22.9 0-34.3-4.1-45.5-8.2-10-3.5-19.5-7-38.7-7-19.4 0-28.7 3.5-38.7 7-11.2 4.1-22.8 8.2-45.5 8.2-22.9 0-34.3-4.1-45.5-8.2-10-3.5-19.5-7-38.7-7-21.2 0-30.4 3.1-41.2 6.6-6.7 2.2-14 4.5-24.5 6.4-0.2 1.8-0.9 3.4-1.8 4.7 1.6 1.7 2.8 3.9 3 6.9 0.3 3-0.5 5.4-1.8 7.3 1.6 1.7 2.7 3.9 3 6.9 0.2 3-0.5 5.3-1.9 7.2 0.5 0.5 0.8 1.1 1.1 1.6h714.4c-0.3-1.2-0.4-2.4-0.2-3.9 0.4-2.9 1.6-5.1 3.3-6.6-1.2-1.9-1.8-4.3-1.4-7.3 0.4-2.9 1.6-5 3.3-6.6-1.2-1.9-1.8-4.3-1.4-7.2 0.4-2.9 1.7-5.1 3.3-6.6-1.4-1.9-2-4.3-1.6-7.3z m8.4 69.6c-1.9-2.7-4.9-4.2-8.2-4.2H165.7c-5 0-7.6 3.4-8.5 4.8s-2.7 5.3-0.3 9.8c24.2 47.4 59.6 135.1 39.1 211.7-1.4 5.4-3.1 10.7-5.1 15.9-97.7 254.9-50 502-49.5 504.5 0.2 0.6 0.2 1.3 0.2 1.9 0 16.6 13.5 29.9 29.9 29.9h708.6c16.6 0 29.9-13.4 29.9-29.9 0.1-2.3 8-126.9 0.1-273.5-4.3-78.2-13-162.8-29.7-238.3-25.3-113.5-4.7-161.8 11.9-200.5 3.4-8.1 6.7-15.7 9.2-23.2 1-3.2 0.5-6.3-1.4-8.9z" fill="#4F5953" p-id="3344"></path></svg>
