<svg t="1578566734025" class="icon" viewBox="0 0 1024 1024" version="1.1" xmlns="http://www.w3.org/2000/svg" p-id="5171" width="200" height="200">
  <path d="M297.6 553.6s-3.2-1.6-6.4-4.8c-33.6-24-174.4-112-264 49.6-102.4 184 124.8 323.2 206.4 324.8 270.4 4.8 324.8-329.6 107.2-352l-43.2-17.6" fill="#84110A" p-id="5172"></path>
  <path d="M264 601.6s-20.8-131.2 46.4-174.4S595.2 262.4 598.4 128l32-4.8s-4.8 76.8-22.4 112S422.4 416 369.6 441.6c-52.8 25.6-72 112-56 168 0 0-38.4 14.4-49.6-8z" fill="#9AA640" p-id="5173"></path>
  <path d="M83.2 547.2s28.8-20.8 92.8-32 72 38.4 92.8 68.8c20.8 30.4 139.2 1.6 150.4 67.2 9.6 65.6 19.2 222.4-201.6 225.6S-9.6 630.4 83.2 547.2z" fill="#DE0025" p-id="5174"></path>
  <path d="M60.8 660.8s-1.6-67.2 36.8-73.6 62.4 32 64 40c1.6 8-17.6 44.8-49.6 49.6s-49.6 0-51.2-16z" fill="#FFFFFF" p-id="5175"></path>
  <path d="M716.8 598.4s-3.2 0-8 1.6c-38.4 11.2-193.6 70.4-124.8 243.2 78.4 195.2 324.8 99.2 379.2 35.2 171.2-214.4-52.8-464-204.8-304l-41.6 24" fill="#84110A" p-id="5176"></path>
  <path d="M732.8 654.4s-113.6-64-105.6-145.6c6.4-81.6 49.6-331.2-51.2-416L592 64s56 51.2 72 88 25.6 259.2 12.8 318.4 41.6 128 94.4 148.8c-1.6 0-12.8 40-38.4 35.2z" fill="#9AA640" p-id="5177"></path>
  <path d="M579.2 766.4s1.6-36.8 33.6-94.4c32-57.6 73.6-33.6 110.4-32 36.8 1.6 88-110.4 144-78.4s182.4 123.2 49.6 300.8-331.2 28.8-337.6-96z" fill="#DE0025" p-id="5178"></path>
  <path d="M652.8 854.4s-52.8-40-33.6-75.2c19.2-36.8 62.4-30.4 70.4-27.2 6.4 4.8 24 41.6 8 70.4-16 28.8-32 40-44.8 32z" fill="#FFFFFF" p-id="5179"></path>
</svg>
