<svg t="1592880645807" class="icon" viewBox="0 0 1024 1024" version="1.1" xmlns="http://www.w3.org/2000/svg" p-id="3837" width="200" height="200">
    <path d="M0 0h1024v1024H0z" fill="#FFFFFF" fill-opacity="0" p-id="3838"></path>
    <path d="M510.045 0C228.352 0 0 228.352 0 510.045c0 281.67 228.352 509.999 510.045 509.999 281.67 0 510.022-228.352 510.022-510.022C1020.067 228.352 791.738 0 510.045 0z m0 792.972a56.576 56.576 0 1 1 0-113.176 56.576 56.576 0 0 1 0 113.176z m28.276-229.4c0 31.349-12.986 56.576-28.276 56.576s-28.3-25.227-28.3-56.576l-28.3-251.578a56.576 56.576 0 0 1 113.176 0l-28.3 251.578z" fill="#F7A200" p-id="3839"></path>
</svg>
