<svg t="1578566771739" class="icon" viewBox="0 0 1024 1024" version="1.1" xmlns="http://www.w3.org/2000/svg" p-id="5748" width="200" height="200"><path d="M282.44 551.83a136.52 136.52 0 0 1-34.66-4.5 134.82 134.82 0 0 1-82.74-62.79q-0.22-0.38-0.44-0.77L50.82 275.15A30 30 0 0 1 62 234.89L320.59 83.76a30 30 0 0 1 41.48 11.54l113.6 208.25a135.71 135.71 0 0 1-48.92 185.23l-76.05 44.45a134.91 134.91 0 0 1-68.26 18.6z m-65.38-97.21a75.71 75.71 0 0 0 103.36 26.81L396.47 437a75.71 75.71 0 0 0 27.16-103.56q-0.22-0.38-0.44-0.77l-99-181.49L117.44 272z m194.55 8.26z" fill="#2F4FF8" p-id="5749"></path><path d="M273.63 443.61a30 30 0 0 1-25.93-14.87l-53.93-92.28a30 30 0 0 1 51.8-30.28l53.93 92.28a30 30 0 0 1-25.87 45.14zM359.88 393.21a30 30 0 0 1-25.93-14.87l-54.62-93.45a30 30 0 1 1 51.8-30.28l54.62 93.45a30 30 0 0 1-25.87 45.14z" fill="#53C6F9" p-id="5750"></path><path d="M754.66 519.93A204.06 204.06 0 0 1 584.2 204.11a204.1 204.1 0 1 1 170.46 315.82z m0.61-348.2a145.47 145.47 0 0 0-29.75 3.09A143.17 143.17 0 0 0 634.4 237a144 144 0 1 0 120.87-65.24z m-146 48.81z" fill="#2F4FF8" p-id="5751"></path><path d="M754.86 430.71A114.85 114.85 0 0 1 643 290.64a30 30 0 1 1 58.53 13.19 54.81 54.81 0 0 0 70.14 64.25 30 30 0 1 1 18.21 57.17 115.24 115.24 0 0 1-35.02 5.46z" fill="#0A1491" p-id="5752"></path><path d="M647 947.53a30 30 0 0 1-25.39-14L349.71 503a30 30 0 1 1 50.73-32l271.9 430.51a30 30 0 0 1-25.34 46z" fill="#2F4FF8" p-id="5753"></path><path d="M375.05 947.53a30 30 0 0 1-25.34-46l271.9-430.61a30 30 0 1 1 50.73 32L400.45 933.55a30 30 0 0 1-25.4 13.98z" fill="#2F4FF8" p-id="5754"></path></svg>
