<svg t="1579334833714" class="icon" viewBox="0 0 1024 1024" version="1.1" xmlns="http://www.w3.org/2000/svg" p-id="1733" width="200" height="200"><path d="M747.243243 885.621622c0-71.956757-105.167568-124.540541-235.243243-124.540541s-235.243243 52.583784-235.243243 124.540541 105.167568 124.540541 235.243243 124.54054 235.243243-52.583784 235.243243-124.54054z m-442.810811 0c0-49.816216 91.32973-96.864865 207.567568-96.864865s207.567568 47.048649 207.567568 96.864865-91.32973 96.864865-207.567568 96.864864-207.567568-47.048649-207.567568-96.864864z" fill="#1296db" p-id="1734"></path><path d="M401.297297 885.621622a110.702703 55.351351 0 1 0 221.405406 0 110.702703 55.351351 0 1 0-221.405406 0Z" fill="#1296db" p-id="1735"></path><path d="M512 553.513514c16.605405 0 27.675676 11.07027 27.675676 27.675675v276.756757c0 16.605405-11.07027 27.675676-27.675676 27.675676s-27.675676-11.07027-27.675676-27.675676v-276.756757c0-16.605405 11.07027-27.675676 27.675676-27.675675z" fill="#1296db" p-id="1736"></path><path d="M512 0c-168.821622 0-304.432432 135.610811-304.432432 304.432432s135.610811 304.432432 304.432432 304.432433 304.432432-135.610811 304.432432-304.432433-135.610811-304.432432-304.432432-304.432432z m0 359.783784c-30.443243 0-55.351351-24.908108-55.351351-55.351352s24.908108-55.351351 55.351351-55.351351 55.351351 24.908108 55.351351 55.351351-24.908108 55.351351-55.351351 55.351352z" fill="#1296db" p-id="1737"></path></svg>
