<svg t="1590403368643" class="icon" viewBox="0 0 1024 1024" version="1.1" xmlns="http://www.w3.org/2000/svg" p-id="8658" width="200" height="200">
  <path d="M489.895602 512.181695a102.363661 102.363661 0 0 0-42.480919 179.136407 68.071834 68.071834 0 0 1 11.260002 9.21273 19.960914 19.960914 0 0 1 0 7.165456V768.090848a51.18183 51.18183 0 0 0 102.363661 0v-57.835469a18.425459 18.425459 0 0 1 0-6.653638 27.12637 27.12637 0 0 1 7.165457-6.141819A102.363661 102.363661 0 0 0 489.895602 512.181695zM342.49193 293.123461c17.913641-8.189093 58.859105-22.008187 59.370924-23.031824a11.771821 11.771821 0 0 0 7.677274-10.236366v-51.18183a102.363661 102.363661 0 0 1 69.095471-102.363661A102.363661 102.363661 0 0 1 614.26745 205.090713v54.764558a12.283639 12.283639 0 0 0 9.724548 11.260003s38.386373 13.307276 57.32365 22.008187a25.590915 25.590915 0 0 0 35.315463-23.543642V205.090713A204.727322 204.727322 0 0 0 469.42287 4.457937 209.845505 209.845505 0 0 0 307.176467 212.767987v56.811832a25.590915 25.590915 0 0 0 35.315463 23.543642z" fill="#333333" p-id="8659"></path>
  <path d="M506.785606 307.454374A362.879178 362.879178 0 0 0 153.630976 660.609004 358.272813 358.272813 0 1 0 506.785606 307.454374z m-51.18183 608.040145A255.909152 255.909152 0 1 1 767.812941 665.727187a255.909152 255.909152 0 0 1-311.697347 249.767332z" fill="#333333" p-id="8660"></path>
</svg>
