<svg t="1578566796924" class="icon" viewBox="0 0 1024 1024" version="1.1" xmlns="http://www.w3.org/2000/svg" p-id="7004" width="200" height="200"><path d="M102.6192 387.2S133.0192 187.2 318.6192 148.8 720.2192 272 821.0192 288c100.8 16 224 145.6 200 299.2-22.4 153.6-16 284.8-424 230.4-108.8-22.4-262.4 68.8-371.2 60.8S-143.7808 680 102.6192 387.2z" fill="#F2B197" p-id="7005"></path><path d="M149.0192 401.6S176.2192 224 341.0192 190.4s356.8 108.8 446.4 123.2 198.4 129.6 177.6 265.6C944.2192 715.2 950.6192 832 587.4192 784c-96-20.8-233.6 60.8-329.6 54.4-96-6.4-329.6-177.6-108.8-436.8z" fill="#FBD1BD" p-id="7006"></path><path d="M195.4192 361.6s100.8-123.2 169.6-115.2 115.2 16 76.8 92.8-92.8 76.8-68.8 115.2c22.4 38.4 38.4 68.8 68.8 76.8s115.2 16 115.2 38.4c0 46.4-68.8 107.2-68.8 131.2s-16 84.8-46.4 92.8-284.8 51.2-331.2-102.4 84.8-329.6 84.8-329.6z" fill="#C93535" p-id="7007"></path><path d="M449.8192 353.6s38.4-38.4 30.4-68.8-22.4-54.4 0-54.4 161.6 30.4 153.6 38.4-54.4 30.4-76.8 38.4-83.2 92.8-107.2 46.4zM441.8192 468.8s-54.4-30.4-8-54.4 76.8-16 92.8-30.4 108.8-123.2 161.6-107.2c54.4 16 30.4 46.4 84.8 46.4s115.2 30.4 115.2 60.8 16 46.4-30.4 38.4-100.8 0-131.2 22.4c-30.4 22.4-84.8 92.8-115.2 92.8-30.4 0-169.6-68.8-169.6-68.8z" fill="#C93535" p-id="7008"></path><path d="M635.4192 561.6s22.4-60.8 62.4-68.8c38.4-8 139.2-30.4 153.6-38.4s22.4-22.4 46.4-8 68.8 46.4 62.4 92.8-38.4 115.2-54.4 137.6c-16 22.4-92.8 92.8-131.2 99.2s-62.4-54.4-38.4-99.2c22.4-46.4-100.8-32-100.8-115.2z" fill="#C93535" p-id="7009"></path><path d="M542.6192 660.8s30.4-68.8 46.4-54.4c16 16 38.4 30.4 62.4 38.4s54.4 22.4 54.4 60.8 16 76.8-8 68.8-46.4-38.4-76.8-30.4-108.8 46.4-115.2 30.4c-9.6-14.4 36.8-113.6 36.8-113.6z" fill="#C93535" p-id="7010"></path></svg>
