<svg t="1579572876557" class="icon" viewBox="0 0 1024 1024" version="1.1" xmlns="http://www.w3.org/2000/svg" p-id="2196" width="200" height="200">
<path d="M201.69697 62.060606a62.060606 62.060606 0 0 0-62.060606 62.060606v775.757576a62.060606 62.060606 0 0 0 62.060606 62.060606h620.60606a62.060606 62.060606 0 0 0 62.060606-62.060606V124.121212a62.060606 62.060606 0 0 0-62.060606-62.060606H201.69697z m0-62.060606h620.60606a124.121212 124.121212 0 0 1 124.121212 124.121212v775.757576a124.121212 124.121212 0 0 1-124.121212 124.121212H201.69697a124.121212 124.121212 0 0 1-124.121212-124.121212V124.121212a124.121212 124.121212 0 0 1 124.121212-124.121212z" style="fill: var(--fill-color)" p-id="2197"></path>
<path d="M263.757576 589.575758h496.484848v62.060606H263.757576z" style="fill: var(--fill-color)" p-id="2198"></path>
<path d="M512 837.818182a31.030303 31.030303 0 1 0 0-62.060606 31.030303 31.030303 0 0 0 0 62.060606z m0 62.060606a93.090909 93.090909 0 1 1 0-186.181818 93.090909 93.090909 0 0 1 0 186.181818z" style="fill: var(--fill-color)" p-id="2199"></path>
</svg>
