<svg t="1579696535573" class="icon" viewBox="0 0 1024 1024" version="1.1" xmlns="http://www.w3.org/2000/svg" p-id="5839" width="200" height="200">
  <path d="M192 384a32 32 0 0 0-32 32v512a32 32 0 0 0 32 32h640a32 32 0 0 0 32-32V416a32 32 0 0 0-32-32H192z m0-64h640a96 96 0 0 1 96 96v512a96 96 0 0 1-96 96H192a96 96 0 0 1-96-96V416a96 96 0 0 1 96-96z" style="fill: var(--fill-color)" p-id="5840"></path>
  <path d="M512 576m-96 0a96 96 0 1 0 192 0 96 96 0 1 0-192 0Z" style="fill: var(--fill-color)" p-id="5841"></path>
  <path d="M800 320h-64c0-168-60.48-256-224-256S288 152 288 320H224C224 120.64 306.88 0 512 0s288 120.64 288 320z" style="fill: var(--fill-color)" p-id="5842"></path>
  <path d="M480 608m32 0l0 0q32 0 32 32l0 128q0 32-32 32l0 0q-32 0-32-32l0-128q0-32 32-32Z" style="fill: var(--fill-color)" p-id="5843"></path>
</svg>
