<svg t="1590399201885" class="icon" viewBox="0 0 1024 1024" version="1.1" xmlns="http://www.w3.org/2000/svg" p-id="3793" width="200" height="200">
  <path d="M855.222044 371.211378h-34.838755v-34.224356C820.383289 162.747733 678.024533 20.184178 504.035556 20.184178 330.001067 20.184178 187.619556 162.747733 187.619556 337.009778v34.224355H152.1664a70.542222 70.542222 0 0 0-70.291911 70.382934v492.817066a70.542222 70.542222 0 0 0 70.314667 70.382934h703.0784c38.684444 0 70.314667-31.675733 70.314666-70.382934V441.594311a70.587733 70.587733 0 0 0-70.314666-70.382933h-0.045512z m-597.265066-33.109334c0-135.509333 110.728533-246.397156 246.033066-246.397155 135.395556 0 246.124089 110.887822 246.124089 246.397155v33.109334H257.956978v-33.109334z m596.3776 561.106489a35.271111 35.271111 0 0 1-35.111822 35.202845H186.413511a35.271111 35.271111 0 0 1-35.157333-35.202845V476.797156c0-19.342222 15.837867-35.202844 35.157333-35.202845h632.809245c19.319467 0 35.111822 15.837867 35.111822 35.202845v422.411377z" fill="#333333" p-id="3794"></path>
  <path d="M479.140978 822.8864v-43.008h-69.632a22.459733 22.459733 0 0 1-22.664534-22.687289c0-12.6976 9.966933-22.664533 22.687289-22.664533h69.609245V701.553778h-69.632a22.459733 22.459733 0 0 1-22.664534-22.687289c0-12.6976 9.966933-22.687289 22.687289-22.687289h67.060623l-70.883556-70.8608a22.004622 22.004622 0 0 1-6.826667-15.928889c0-6.371556 2.525867-12.242489 6.826667-16.042667l0.091022-0.091022a21.981867 21.981867 0 0 1 15.655822-6.5536c6.371556 0 12.219733 2.525867 16.019912 6.826667l64.147911 63.647289 63.624533-64.216178a21.617778 21.617778 0 0 1 15.928889-6.849422c6.462578 0 12.242489 2.548622 16.042667 6.826666l0.113777 0.113778c4.391822 4.5056 6.735644 10.467556 6.644623 16.520534a20.957867 20.957867 0 0 1-6.849423 15.246222l-0.091022 0.113778-70.087111 70.974577h67.128889c12.743111 0 22.687289 9.966933 22.687289 22.664534a22.459733 22.459733 0 0 1-22.664534 22.687289h-69.632v32.950044h69.632c12.6976 0 22.664533 9.966933 22.664534 22.664533a22.459733 22.459733 0 0 1-22.664534 22.687289h-69.632v43.008a22.641778 22.641778 0 0 1-22.664533 22.983111 22.459733 22.459733 0 0 1-22.664533-22.687289z" fill="#333333" p-id="3795"></path>
</svg>
