<svg class="icon" viewBox="0 0 1024 1024" version="1.1" xmlns="http://www.w3.org/2000/svg" p-id="5466" width="200" height="200">
  <path d="M525.18134712 990.48360214s-1.51432954 0 0 0c-24.22927201 0-40.88689669-9.08597706-56.03019164-16.65762455-3.02865907-1.51432954-7.57164753-4.54298858-12.114636-6.05731798-83.28812269-36.34390811-324.06651385-243.80705019-334.66682044-310.43754835-7.57164753-45.42988523-1.51432954-413.41195468 0-487.61410029v-28.77226058l27.25793112-7.57164763c53.00153269-15.14329513 318.00919587-90.85977019 374.03938744-90.85977019s321.03785489 75.71647522 374.03938754 90.85977019l27.25793113 7.57164763v28.77226058c1.51432954 72.68781609 7.57164753 439.15555623 0 486.09977076-10.60030653 68.14482758-157.49026843 202.92015353-334.66682041 308.92321885l-3.02865909 1.51432946c-12.11463602 10.60030653-36.34390811 24.22927201-62.08750965 24.2292721z m-327.09517283-346.78145653c19.68628351 40.88689669 212.00613067 221.09210758 290.75126473 254.40735678 6.05731801 3.02865907 10.60030653 4.54298858 15.14329513 7.57164747 7.57164753 4.54298858 16.65762455 7.57164753 21.20061297 7.57164758v37.85823754-37.85823754c6.05731801 0 19.68628351-7.57164753 24.22927205-12.11463602l3.02865885-1.51432964c193.8341765-115.08904228 292.26559429-230.17808473 298.32291246-255.92168617 4.54298858-28.77226069 3.02865907-277.12229925 0-445.21287414-125.68934879-34.82957866-295.2942533-80.25946366-325.58084336-80.25946368s-199.89149446 43.91555563-325.58084334 80.25946368c-4.54298858 166.57624543-6.05731801 408.86896615-1.51432949 445.21287414z m0-1.51432952z" fill="#333333" p-id="5467"></path>
  <path d="M779.58870381 369.60850554c0 12.11463602-4.54298858 22.71494251-13.62896548 31.80091944L513.06671112 654.30245217c-15.14329513 21.20061314-37.85823758 15.14329513-40.88689662 15.14329507-12.11463602 0-22.71494251-4.54298858-31.80091962-13.62896551l-110.54605377-110.54605374c-18.17195406-18.17195406-18.17195406-46.94421455 0-63.60183927 18.17195406-18.17195406 46.94421455-18.17195406 63.60183921 0l83.2881227 83.28812268 225.63509612-225.63509614c18.17195406-18.17195406 46.94421455-18.17195406 63.60183919 0 9.08597706 7.57164753 13.62896548 19.68628351 13.62896548 30.28659028z" fill="#333333" p-id="5468"></path>
</svg>
