<svg t="1590402422676" class="icon" viewBox="0 0 1228 1024" version="1.1" xmlns="http://www.w3.org/2000/svg" p-id="6713" width="200" height="200">
  <path d="M1075.2 166.4c15.36 0 25.6 12.8 25.6 28.16v609.28c0 15.36-12.8 28.16-28.16 28.16H156.16c-15.36 0-28.16-12.8-28.16-28.16V194.56c0-15.36 12.8-28.16 28.16-28.16H1075.2m0-51.2H156.16C112.64 115.2 76.8 151.04 76.8 194.56v609.28c0 43.52 35.84 79.36 79.36 79.36H1075.2c43.52 0 79.36-35.84 79.36-79.36V194.56C1152 151.04 1118.72 115.2 1075.2 115.2z" fill="#666666" p-id="6714"></path>
  <path d="M435.2 281.6c61.44 0 110.08 46.08 110.08 102.4 0 38.4-25.6 76.8-64 92.16l-46.08 23.04-46.08-20.48c-38.4-17.92-64-53.76-64-94.72 0-56.32 48.64-102.4 110.08-102.4m0 256l53.76 12.8c61.44 15.36 110.08 53.76 133.12 102.4 7.68 20.48 10.24 35.84 2.56 46.08-12.8 15.36-20.48 17.92-35.84 17.92H284.16c-28.16-2.56-40.96-15.36-40.96-43.52 0-5.12 2.56-15.36 5.12-20.48 25.6-51.2 74.24-87.04 130.56-102.4L435.2 537.6m0-294.4c-81.92 0-148.48 64-148.48 140.8 0 56.32 35.84 104.96 87.04 128-66.56 17.92-122.88 61.44-156.16 122.88-2.56 7.68-10.24 25.6-10.24 38.4 2.56 48.64 30.72 76.8 76.8 79.36h286.72-2.56 15.36c23.04 0 46.08-5.12 64-33.28 15.36-20.48 15.36-48.64 2.56-81.92-25.6-64-87.04-110.08-158.72-125.44 51.2-23.04 84.48-71.68 84.48-128 7.68-76.8-58.88-140.8-140.8-140.8zM998.4 535.04h-243.2c-10.24 0-20.48-10.24-20.48-25.6s7.68-25.6 20.48-25.6H998.4c10.24 0 20.48 10.24 20.48 25.6s-10.24 25.6-20.48 25.6z m0-128h-243.2c-10.24 0-20.48-10.24-20.48-25.6s7.68-25.6 20.48-25.6H998.4c10.24 0 20.48 10.24 20.48 25.6s-10.24 25.6-20.48 25.6z" fill="#666666" p-id="6715"></path>
</svg>
