<svg t="1590403964216" class="icon" viewBox="0 0 1024 1024" version="1.1" xmlns="http://www.w3.org/2000/svg" p-id="19203" width="200" height="200">
  <path d="M690.200094 32.177694l229.074824 72.342588A72.282353 72.282353 0 0 1 969.788235 173.447529v240.959247A562.669929 562.669929 0 0 1 740.894118 867.388235l-186.018636 137.065412a72.282353 72.282353 0 0 1-85.756988 0L283.105882 867.388235A560.868894 560.868894 0 0 1 54.946635 414.4128l0.632471-246.079247A72.282353 72.282353 0 0 1 106.797176 99.376188L333.239718 30.376659a602.352941 602.352941 0 0 1 356.960376 1.807059z m50.326588 300.513882a36.056847 36.056847 0 0 0-50.989176 0L485.442259 536.786824 407.9616 459.294118a36.141176 36.141176 0 0 0-51.109647 51.11567l97.267953 97.28a36.056847 36.056847 0 0 0 56.060988 6.354824l230.345788-230.351812a36.056847 36.056847 0 0 0 0-50.989176z" fill="#000000" p-id="19204"></path>
  <path d="M150.588235 349.364706c12.607247 0.042165 22.829176 9.456941 24.009789 22.793035L174.682353 373.458824v42.164705c-0.186729 13.540894-10.974871 24.136282-24.094118 24.094118-12.607247-0.042165-22.829176-9.456941-24.009788-22.793035L126.494118 415.623529v-42.164705c0.186729-13.540894 10.974871-24.136282 24.094117-24.094118z m78.305883-162.635294c2.758776 12.047059-4.565835 25.419294-18.070589 30.117647-20.732988 5.306729-35.358118 23.696565-36.141176 42.164706v6.023529c-0.036141 13.372235-10.8544 24.130259-24.094118 24.094118-12.565082-0.036141-22.817129-9.577412-24.009788-22.805083L126.494118 265.035294c0.120471-45.321035 29.292424-83.052424 72.282353-96.37647 12.035012-2.758776 25.413271 4.571859 30.117647 18.070588z" fill="#FFFFFF" p-id="19205"></path>
</svg>
