<svg t="1579611293852" class="icon" viewBox="0 0 1024 1024" version="1.1" xmlns="http://www.w3.org/2000/svg" p-id="3167" width="200" height="200"><path d="M0 512c0 282.76736 229.23264 512 512 512s512-229.23264 512-512S794.76736 0 512 0 0 229.23264 0 512z" fill="#4DC246" p-id="3168"></path><path d="M800.83968 318.37184l-5.69344-5.69344a28.18048 28.18048 0 0 0-39.8592 0l-305.31584 305.31584-165.12-165.12a32.2048 32.2048 0 0 0-45.55264 0l-5.69344 5.69344a32.2048 32.2048 0 0 0 0 45.55264l182.20544 182.20544c0.64 0.64 1.31584 1.2288 1.9968 1.80224 0.3072 0.33792 0.52736 0.7168 0.85504 1.04448l5.69344 5.69344a28.18048 28.18048 0 0 0 39.8592 0l336.62976-336.62976a28.19584 28.19584 0 0 0-0.00512-39.86432z" fill="#FFFFFF" p-id="3169"></path></svg>
