<svg class="icon" viewBox="0 0 1024 1024" version="1.1" xmlns="http://www.w3.org/2000/svg" p-id="9625" width="200" height="200">
  <path d="M957.8 972.8a28.8 28.8 0 0 1-20.4-7.8L677.6 717.8a29.4 29.4 0 0 1 0-42 30 30 0 0 1 42 0l259.8 246.6a29.4 29.4 0 0 1 0 42 30.6 30.6 0 0 1-21.6 8.4z" fill="#333333" p-id="9626"></path>
  <path d="M704.6 979.4a29.4 29.4 0 0 1-20.4-8.4 28.8 28.8 0 0 1 0-41.4L932 669.8a30 30 0 1 1 43.2 40.8L728.6 970.4a30.6 30.6 0 0 1-24 9zM466.4 552.2a257.4 257.4 0 1 1 256.8-256.8 257.4 257.4 0 0 1-256.8 256.8z m0-455.4a198.6 198.6 0 1 0 198 198.6 198.6 198.6 0 0 0-198-198.6z" fill="#333333" p-id="9627"></path>
  <path d="M581.6 986h-540v-66A426.6 426.6 0 0 1 467 493.4a29.4 29.4 0 1 1 0 60A368.4 368.4 0 0 0 99.2 920v6.6h480a30 30 0 0 1 0 60z" fill="#333333" p-id="9628"></path>
</svg>
