<svg width="150" height="150" xmlns="http://www.w3.org/2000/svg" xmlns:svg="http://www.w3.org/2000/svg">
  <circle fill="#aad4ff" stroke="#cccccc" stroke-width="5" cx="75" cy="75" r="70" id="svg_1"/>
  <path stroke="null" id="svg_1" fill="#EE7C3D" d="m82.48582,75.89964l-48.52876,0l0,35.7285a7.76718,7.73432 0 0 0 7.74395,7.71119l48.52876,0l0,-35.7285a7.76718,7.73432 0 0 0 -7.74395,-7.71119z"/>
  <path stroke="null" id="svg_2" fill="#333333" d="m82.48582,96.46281l0,14.65125l-14.71351,0l0,-14.65125l14.71351,0m0.51626,-8.22527l-15.74603,0a7.76718,7.73432 0 0 0 -7.74395,7.71119l0,15.67941a7.76718,7.73432 0 0 0 7.74395,7.71119l15.74603,0a7.76718,7.73432 0 0 0 7.74395,-7.71119l0,-15.67941a7.76718,7.73432 0 0 0 -7.74395,-7.71119z"/>
  <path stroke="null" id="svg_3" fill="#EE7C3D" d="m96.92313,49.81013l-62.37753,0l-3.16986,13.90327a14.54314,14.48161 0 1 0 29.0837,0a14.54056,14.47904 0 1 0 29.08112,0a14.54314,14.48161 0 0 0 13.85393,14.46361c-0.25813,-1.10527 -6.47136,-28.36688 -6.47136,-28.36688z"/>
  <path stroke="null" id="svg_4" fill="#333333" d="m108.29899,77.5704l0,33.54366l-66.08172,0l0,-33.39458a14.55088,14.48932 0 0 1 -8.26021,-5.77311l0,39.68176a7.76718,7.73432 0 0 0 7.74395,7.71119l67.11425,0a7.76718,7.73432 0 0 0 7.74395,-7.71119l0,-40.48373a14.56637,14.50474 0 0 1 -8.26021,6.42599z"/>
  <path id="svg_5" fill="#333333" d="m104.0837,82.30764a18.65002,18.57111 0 0 1 -14.54314,-6.94007a18.64743,18.56854 0 0 1 -29.08112,0a18.6655,18.58653 0 0 1 -33.21381,-11.65417a4.03202,4.01496 0 0 1 0.10325,-0.90992l6.60817,-28.9298a4.13011,4.11263 0 0 1 4.01911,-3.21299l74.04766,0a4.13011,4.11263 0 0 1 4.01911,3.21299l6.60817,28.9298a4.03202,4.01496 0 0 1 0.10325,0.90992a18.6939,18.6148 0 0 1 -18.67067,18.59424zm-10.41303,-18.59424a10.41303,10.36897 0 0 0 20.82349,0.42412l-5.76666,-25.25156l-67.45498,0l-5.76666,25.25156a10.41303,10.36897 0 0 0 20.81574,-0.42412a4.13011,4.11263 0 0 1 8.26021,0a10.41045,10.3664 0 1 0 20.8209,0a4.13011,4.11263 0 0 1 8.26021,0l0.00774,0z"/>
</svg>
