<svg t="1578566484210" class="icon" viewBox="0 0 1024 1024" version="1.1" xmlns="http://www.w3.org/2000/svg" p-id="2629" width="200" height="200"><path d="M988.86528 307.2s185.6 651.2-299.2 688S96.06528 859.2 25.66528 696l963.2-388.8z" fill="#036029" p-id="2630"></path><path d="M432.06528 70.4s54.4-72 211.2-36.8 376 227.2 366.4 363.2-27.2 153.6 0 200-27.2 81.6-73.6 99.2c-46.4 17.6-17.6 126.4-73.6 126.4-54.4 0-73.6-9.6-118.4 0-46.4 9.6-118.4-108.8-118.4-108.8l-164.8-336L432.06528 80" fill="#3B8234" p-id="2631"></path><path d="M48.06528 760s-147.2-336 73.6-571.2c17.6-27.2 46.4-54.4 147.2-54.4S368.06528 16 432.06528 33.6s54.4 81.6 128 81.6 83.2-44.8 118.4 0c36.8 44.8 36.8 108.8 91.2 145.6 54.4 36.8 91.2 27.2 100.8 72 9.6 44.8-46.4 118.4-27.2 145.6S928.06528 560 864.06528 624s-100.8 64-100.8 108.8 27.2 91.2-36.8 118.4-128 27.2-137.6 64-36.8 54.4-73.6 64c-36.8 9.6-110.4-54.4-147.2-44.8-36.8 6.4-182.4 60.8-320-174.4z" fill="#86C958" p-id="2632"></path><path d="M65.66528 777.6S212.86528 352 670.46528 360c0 0-366.4 0-550.4 489.6 1.6 0-44.8-35.2-54.4-72z" fill="#FFFFFF" p-id="2633"></path><path d="M139.26528 668.8s-110.4-153.6 9.6-344c0 0-73.6 244.8 9.6 308.8l-19.2 35.2zM350.46528 451.2s-17.6-180.8 137.6-254.4c0 0-128 99.2-100.8 235.2l-36.8 19.2zM276.86528 550.4s137.6 153.6 393.6 81.6c0 0-192 118.4-412.8-44.8l19.2-36.8zM148.86528 750.4c73.6 91.2 284.8 91.2 284.8 91.2-201.6-9.6-265.6-126.4-265.6-126.4l-19.2 35.2z" fill="#FFFFFF" p-id="2634"></path></svg>
