<svg class="icon" viewBox="0 0 1024 1024" version="1.1" xmlns="http://www.w3.org/2000/svg" p-id="7082" width="200" height="200">
  <path d="M241.773714 256.420571l-10.276571-32.109714 32.109714 10.916572 26.971429-20.553143-0.64 33.389714 27.611428 20.553143-32.109714 10.276571-9.636571 32.109715-19.254858-26.971429h-34.048c-1.28 0 19.273143-27.611429 19.273143-27.611429z m159.268572-99.547428l7.68-32.731429 21.851428 25.033143 34.029715-3.84-16.694858 28.233143 13.494858 31.469714-32.749715-7.698285-24.411428 23.771428-3.218286-34.048-30.171429-16.694857c-1.28 0.64 30.171429-13.494857 30.171429-13.494857z m388.498285 614.564571l10.276572 32.109715-32.109714-10.916572L740.754286 811.885714l0.64-33.389714-27.611429-20.553143 32.109714-10.258286 10.916572-32.109714 19.273143 26.971429 32.731428-0.658286c0.658286 1.938286-19.254857 29.549714-19.254857 29.549714z m89.270858-143.853714l10.276571 32.109714-32.109714-10.916571-26.971429 19.273143 0.64-33.389715-27.611428-20.553142 32.109714-10.276572 10.916571-32.109714 19.254857 26.971428 32.749715-0.64c1.28 1.92-19.254857 29.531429-19.254857 29.531429zM629.010286 869.046857l-7.716572 32.731429-21.833143-25.033143-34.029714 3.858286 18.614857-28.891429-13.476571-30.171429 32.731428 7.68 25.051429-21.814857 2.56 34.011429 28.269714 16.713143c0-1.92-30.171429 10.916571-30.171428 10.916571zM155.062857 417.609143l-25.051428-22.491429 33.408-5.778285 14.756571-31.451429 16.694857 29.531429 34.048 3.84-22.491428 25.051428 7.076571 32.749714-29.549714-14.756571-29.531429 16.694857c-3.84 0.64 0.64-33.389714 0.64-33.389714z m583.094857 202.916571a248.978286 248.978286 0 0 1-48.164571 67.419429 259.291429 259.291429 0 0 1-67.437714 48.164571l-60.342858 60.379429a286.390857 286.390857 0 0 0 156.032-80.274286 286.390857 286.390857 0 0 0 80.274286-156.050286l-60.361143 60.361143zM293.12 407.314286a248.978286 248.978286 0 0 1 48.164571-67.419429 259.291429 259.291429 0 0 1 67.437715-48.164571l60.342857-60.342857a286.390857 286.390857 0 0 0-156.032 80.256 286.390857 286.390857 0 0 0-80.274286 156.050285l60.361143-60.361143z m646.674286 10.934857c7.058286 30.811429 10.276571 62.921143 10.276571 95.030857 0 56.502857-10.916571 111.725714-32.109714 163.748571a430.774857 430.774857 0 0 1-95.689143 143.853715 430.756571 430.756571 0 0 1-143.835429 95.689143 432.585143 432.585143 0 0 1-163.766857 32.109714c-32.109714 0-64.219429-3.218286-95.030857-10.276572l-32.749714 32.731429c159.890286 44.324571 337.773714 3.876571 463.634286-121.362286 125.220571-125.220571 166.326857-303.725714 121.380571-463.634285l-32.109714 32.109714zM91.501714 608.969143c-7.058286-30.829714-10.276571-62.939429-10.276571-95.049143 0-56.502857 10.916571-111.725714 32.109714-163.748571 21.211429-53.942857 53.302857-102.107429 95.049143-143.853715a430.756571 430.756571 0 0 1 143.835429-95.670857 432.585143 432.585143 0 0 1 163.766857-32.109714c32.109714 0 64.219429 3.2 95.030857 10.276571l32.749714-32.749714C483.876571 12.397714 305.993143 52.845714 180.132571 178.066286 54.893714 303.286857 13.805714 481.828571 58.752 641.718857l32.749714-32.749714z m671.085715-558.683429l216.393142 216.411429-710.235428 710.217143L52.333714 760.539429 762.569143 50.285714z m-28.269715-28.269714L24.082286 732.269714a40.32 40.32 0 0 0 0 56.502857l216.411428 216.411429a40.32 40.32 0 0 0 56.502857 0L1007.232 294.948571a40.32 40.32 0 0 0 0-56.502857L790.820571 21.997714c-15.396571-15.396571-40.448-15.396571-56.502857 0z" fill="#ED9AA0" p-id="7083"></path>
  <path d="M274.194286 602.953143l14.884571-14.902857 20.022857 20.022857 51.986286-51.986286 14.262857 14.262857-51.968 51.986286L347.428571 646.4l60.196572-60.214857 14.262857 14.281143-47.926857 47.945143c28.397714 7.917714 61.897143 6.985143 100.388571-2.633143l2.944 23.734857c-43.593143 6.363429-81.773714 3.254857-114.980571-9.472l-0.621714 0.621714 69.522285 69.522286-14.902857 14.884571-69.504-69.504-0.621714 0.621715c14.116571 36.150857 16.749714 75.099429 8.064 116.662857l-22.345143-5.266286c10.550857-35.986286 11.337143-69.357714 2.651429-99.766857l-47.945143 47.945143-14.281143-14.262857 60.196571-60.214858-24.045714-24.045714-50.889143 50.889143-14.262857-14.262857 50.870857-50.907429-20.004571-20.004571z m122.733714-126.774857l20.315429-7.277715c7.131429 13.952 12.873143 28.708571 17.371428 43.739429l107.849143 107.849143-14.738286 14.738286-85.028571-85.028572c1.554286 11.483429 2.486857 23.277714 2.797714 35.364572l-20.022857-10.697143c-2.322286-33.974857-11.794286-67.035429-28.544-98.688z m49.334857 18.322285l56.795429-56.795428-31.817143-31.817143 14.738286-14.738286 31.817142 31.817143 21.394286-21.412571 14.281143 14.262857-21.394286 21.430857 78.811429 78.811429c11.154286 11.172571 11.483429 22.345143 0.621714 33.206857l-23.131428 23.113143-17.682286-11.154286c7.917714-6.692571 15.36-13.513143 22.198857-20.333714 4.333714-4.352 4.187429-9.142857-0.475429-13.824l-75.099428-75.081143-56.777143 56.777143-14.281143-14.262858z m44.836572 12.873143c24.978286 2.011429 45.622857 4.955429 62.061714 8.996572l-3.876572 21.248c-17.536-4.498286-38.473143-8.045714-62.829714-10.697143l4.644572-19.565714z m42.971428-139.172571l31.670857-31.652572-13.202285-13.202285 13.970285-13.952 13.184 13.165714 27.318857-27.300571 12.708572 12.726857-27.300572 27.318857 10.550858 10.550857 23.734857-23.753143 12.434285 12.434286-63.945142 63.908571-12.416-12.416 26.221714-26.221714-10.550857-10.550857-31.634286 31.652571-12.726857-12.708571z m55.716572 34.596571l53.997714-53.997714 12.726857 12.726857-53.997714 53.997714-12.726857-12.726857z m12.105142 31.030857l73.545143-73.545142 12.873143 12.873142-29.165714 29.165715 36.150857 36.150857c9.307429 9.325714 8.832 19.090286-1.097143 29.019428l-12.708571 12.726858-16.292572-10.404572c4.333714-3.108571 8.374857-6.509714 11.940572-10.075428 3.730286-3.730286 4.022857-7.442286 0.768-10.715429l-32.731429-32.731429-30.409143 30.409143-12.873143-12.873143z m28.854858 8.064l14.116571-9.472c8.539429 15.36 14.116571 30.262857 16.603429 45.165715l-17.993143 4.022857a106.715429 106.715429 0 0 0-12.726857-39.716572z m50.285714-53.065142c10.532571 3.419429 21.248 7.606857 32.109714 12.873142l-6.363428 16.603429a224.694857 224.694857 0 0 0-33.682286-14.116571l7.917714-15.36z m-73.252572-119.478858l15.670858-11.318857c6.528 8.374857 12.416 16.128 17.371428 23.588572l40.192-40.192 8.850286 8.850285c11.008 15.049143 21.394286 30.72 31.341714 46.848l-17.536 9.782858a300.580571 300.580571 0 0 0-23.734857-38.016l-29.019429 29.019428c9.142857 16.274286 14.902857 31.030857 17.060572 44.379429l-19.236572 3.108571c-4.955429-22.985143-18.614857-48.420571-40.96-76.050286z m57.417143 36.004572l13.348572-13.348572c10.24 10.24 19.236571 20.169143 26.989714 29.805715 30.098286 17.060571 60.196571 24.502857 89.984 22.637714l1.408 20.955429c-24.210286 0-48.274286-5.12-71.844571-15.36 13.037714 22.656 17.060571 48.091429 12.105142 76.653714l-19.712-1.718857c4.205714-24.667429 1.243429-46.537143-9.142857-65.938286-9.014857-15.835429-23.277714-33.828571-43.154285-53.686857z" fill="#ED9AA0" p-id="7084"></path>
</svg>
