<svg t="1589357826126" class="icon" viewBox="0 0 1024 1024" version="1.1" xmlns="http://www.w3.org/2000/svg" p-id="8910" width="200" height="200">
  <path d="M392.85856 427.2c-6.4-35.2-35.2-64-72-64-40 0-73.6 33.6-73.6 73.6 0 40 32 72 72 73.6 38.4 1.6 68.8-27.2 75.2-62.4 1.6-3.2 1.6-6.4 1.6-11.2-1.6-3.2-3.2-6.4-3.2-9.6z m-92.8 9.6c0-25.6 38.4-25.6 40 0-1.6 25.6-40 25.6-40 0zM597.65856 427.2c-6.4-35.2-35.2-64-72-64-40 0-73.6 33.6-73.6 73.6 0 40 32 72 72 73.6 38.4 1.6 68.8-27.2 75.2-62.4 1.6-3.2 1.6-6.4 1.6-11.2-1.6-3.2-1.6-6.4-3.2-9.6z m-92.8 9.6c0-25.6 38.4-25.6 40 0-1.6 25.6-40 25.6-40 0zM804.05856 436.8c0-4.8 0-8-1.6-11.2-6.4-35.2-35.2-64-72-64-40 0-73.6 33.6-73.6 73.6 0 40 32 72 72 73.6 38.4 1.6 68.8-27.2 75.2-62.4v-9.6z m-94.4 0c0-25.6 38.4-25.6 40 0-1.6 25.6-40 25.6-40 0z" fill="#cccccc" p-id="8911"></path>
  <path d="M1021.65856 422.4v-176c0-27.2 3.2-57.6-1.6-84.8C1000.85856 56 896.85856 64 815.25856 64H156.05856c-32 0-64-1.6-92.8 16C20.05856 105.6 5.65856 150.4 4.05856 198.4c-1.6 107.2 0 216 0 323.2 0 88-30.4 248 75.2 288 46.4 17.6 110.4 8 160 8h139.2c35.2 49.6 72 99.2 107.2 148.8 12.8 17.6 33.6 17.6 46.4 0 40-54.4 80-108.8 121.6-163.2 20.8-28.8-25.6-56-46.4-27.2-32 43.2-65.6 86.4-97.6 131.2-19.2-25.6-36.8-51.2-56-76.8-17.6-25.6-35.2-64-67.2-67.2-49.6-4.8-100.8 0-150.4 0-40 0-89.6 8-129.6-1.6-52.8-14.4-46.4-67.2-46.4-108.8v-158.4c0-100.8-3.2-201.6 0-302.4 3.2-91.2 99.2-73.6 164.8-73.6H871.25856c38.4 0 81.6 0 94.4 46.4 8 27.2 1.6 60.8 1.6 88v384c0 44.8 9.6 107.2-46.4 123.2-46.4 12.8-104 1.6-152 1.6-35.2 0-35.2 54.4 0 54.4 44.8 0 89.6 1.6 134.4 0 67.2-3.2 116.8-51.2 118.4-118.4 3.2-89.6 0-182.4 0-275.2z" fill="#cccccc" p-id="8912"></path>
</svg>
