<svg t="1589358045588" class="icon" viewBox="0 0 1024 1024" version="1.1" xmlns="http://www.w3.org/2000/svg" p-id="9153" width="200" height="200">
  <path d="M1023.85 326.64l-0.23-0.45-0.07-0.5c0-0.23-0.06-0.46-0.1-0.69v-0.86l-0.41-1.64c-0.42-1.67-0.9-3.12-1.37-4.53-0.18-0.55-0.37-1-0.51-1.34v-0.14l-0.16-0.41V315.93l-0.21-0.62L896.13 66.35a56.69 56.69 0 0 0-51-31.51H178.66a56.69 56.69 0 0 0-51 31.51L3.14 315.34l-0.38 1v0.16c-0.15 0.35-0.28 0.69-0.4 1v0.1a28.71 28.71 0 0 0-1.68 5.87l-0.19 1.12v0.62a31.38 31.38 0 0 0-0.49 4.6v580.64a78.79 78.79 0 0 0 78.7 78.7h866.6a78.79 78.79 0 0 0 78.7-78.7v-583.5zM94.67 290.43l91.61-183.23 0.83-1.67h649.58l0.83 1.67 91.62 183.23 2.18 4.37H92.49z m858.54 78.17v541.76a8 8 0 0 1-8 8H78.61a8 8 0 0 1-8-8V365.59h882.6z" fill="#cccccc" p-id="9154"></path>
  <path d="M728.69 577.07C694.88 548.9 647.37 534 591.3 534H340.78l6.51-5.35 78.93-64.83a29.77 29.77 0 0 0-15.94-52.64c-1-0.1-2-0.15-3-0.15a29.29 29.29 0 0 0-18.79 6.75l-126.76 103.8-2 1.87-0.23 0.22a56.41 56.41 0 0 0 0 79.79l0.27 0.27 128.58 105.83a29.73 29.73 0 1 0 37.78-45.92l-78.93-64.83-6.51-5.35H591.2c13.48 0 48.06 1.52 77.82 15.64 34.74 16.48 52.36 44.83 52.36 84.27 0 74.26-65.38 107.5-130.18 107.5H422.53a29.82 29.82 0 1 0 0 59.65H591.3c53.69 0 102.08-16.48 136.27-46.4C762 783.94 781 741.09 781 693.47s-18.07-87.87-52.31-116.4z" fill="#cccccc" p-id="9155"></path>
</svg>
