<svg t="1579500398428" class="icon" viewBox="0 0 1024 1024" version="1.1" xmlns="http://www.w3.org/2000/svg" p-id="7837" width="200" height="200"><path d="M512 512m-512 0a512 512 0 1 0 1024 0 512 512 0 1 0-1024 0Z" fill="#FA7E60" p-id="7838"></path><path d="M461.34272 501.03296c-53.4528 7.38304-91.84256 48.7424-85.83168 92.34432s54.272 72.97024 107.68384 65.5872 91.86304-48.7424 85.83168-92.38528-54.272-72.96-107.68384-65.536zM445.44 615.46496a25.96864 25.96864 0 1 1-6.9632-50.39104 25.96864 25.96864 0 1 1 6.9632 50.39104z m242.16576-154.33728l4.3008-12.288c38.47168-73.84064-60.71296-97.91488-117.59616-66.56s-29.40928-21.73952-29.40928-21.73952c9.41056-97.08544-92.65152-54.12864-92.65152-54.12864-237.01504 132.92544-212.95104 264.66304-212.95104 264.66304 0 72.48896 113.664 153.4464 256.96256 153.4464 189.87008 0 298.1376-111.0016 279.32672-193.536-7.61856-33.31072-47.16544-61.8496-87.99232-69.888z m-219.57632 225.6896c-124.32384 0-166.37952-64.6656-166.37952-111.40096 0-74.05568 98.10944-128.75776 190.464-128.75776s158.16704 39.23968 173.24032 90.70592c22.33344 76.15488-74.99776 149.4528-197.3248 149.4528z" fill="#FFFFFF" p-id="7839"></path></svg>
