<svg t="1579500352347" class="icon" viewBox="0 0 1024 1024" version="1.1" xmlns="http://www.w3.org/2000/svg" p-id="6263" width="200" height="200"><path d="M362.76363594 393.30909125m-31.41818157 0a31.41818156 31.41818156 0 1 0 62.83636407 0 31.41818156 31.41818156 0 1 0-62.83636406 0Z" fill="#50B674" p-id="6264"></path><path d="M503.27272719 392.43636406m-31.41818156 0a31.41818156 31.41818156 0 1 0 62.83636312 0 31.41818156 31.41818156 0 1 0-62.83636312 0Z" fill="#50B674" p-id="6265"></path><path d="M572.21818156 532.94545438m-21.81818156-1e-8a21.81818156 21.81818156 0 1 0 43.63636406 0 21.81818156 21.81818156 0 1 0-43.63636406 0Z" fill="#50B674" p-id="6266"></path><path d="M683.05454563 534.69090875m-21.81818157 0a21.81818156 21.81818156 0 1 0 43.63636313 0 21.81818156 21.81818156 0 1 0-43.63636313 0Z" fill="#50B674" p-id="6267"></path><path d="M512 32C246.69090875 32 32 246.69090875 32 512s214.69090875 480 480 480 480-214.69090875 480-480S777.30909125 32 512 32z m-82.03636406 590.83636406c-25.30909125 0-45.38181844-5.23636406-70.69090875-10.47272812l-70.69090875 34.90909125 20.07272718-60.21818157c-50.61818156-34.90909125-80.29090875-80.29090875-80.29090968-136.14545437 0-96 90.76363594-171.05454563 201.6-171.05454563 98.61818156 0 185.89090875 60.21818156 203.34545531 141.38181844-6.10909125-0.87272719-13.09090875-0.87272719-19.2-0.87272812-96 0-171.05454563 71.56363594-171.05454563 159.70909125 0 14.83636406 2.61818156 28.8 6.10909032 41.89090875-6.98181844 0-13.09090875 0.87272719-19.2 0.87272812z m294.98181844 70.69090875l14.83636406 50.61818156-54.98181844-30.54545437c-20.07272719 5.23636406-40.14545437 10.47272719-60.21818156 10.47272719-96 0-171.05454563-65.45454562-171.05454563-145.74545438s75.05454563-145.74545438 171.05454563-145.74545437c90.76363594 0 171.05454563 65.45454562 171.05454562 145.74545437 0 44.50909125-29.67272719 84.65454562-70.69090968 115.2z" fill="#50B674" p-id="6268"></path></svg>
